{
	"asset":{
		"generator":"Khronos glTF Blender I/O v4.2.70",
		"version":"2.0"
	},
	"scene":0,
	"scenes":[
		{
			"name":"Scene",
			"nodes":[
				0,
				1,
				2,
				3,
				4,
				5,
				6
			]
		}
	],
	"nodes":[
		{
			"mesh":0,
			"name":"bodytop"
		},
		{
			"mesh":1,
			"name":"bodybottom"
		},
		{
			"mesh":2,
			"name":"bottom"
		},
		{
			"mesh":3,
			"name":"top"
		},
		{
			"mesh":4,
			"name":"lid"
		},
		{
			"mesh":5,
			"name":"label"
		},
		{
			"mesh":6,
			"name":"Cube"
		}
	],
	"materials":[
		{
			"doubleSided":true,
			"name":"reflectiveAluminium",
			"pbrMetallicRoughness":{
				"baseColorFactor":[
					0.800000011920929,
					0.800000011920929,
					0.800000011920929,
					1
				],
				"metallicFactor":0.7763158082962036,
				"roughnessFactor":0.3815789520740509
			}
		},
		{
			"doubleSided":true,
			"name":"opaqueAluminium",
			"pbrMetallicRoughness":{
				"baseColorFactor":[
					0.800000011920929,
					0.800000011920929,
					0.800000011920929,
					1
				],
				"metallicFactor":0.9868420958518982,
				"roughnessFactor":0.75
			}
		},
		{
			"doubleSided":true,
			"name":"shiningAluminium",
			"pbrMetallicRoughness":{
				"baseColorFactor":[
					0.800000011920929,
					0.800000011920929,
					0.800000011920929,
					1
				],
				"metallicFactor":0.875,
				"roughnessFactor":0.6513158082962036
			}
		},
		{
			"doubleSided":true,
			"name":"label",
			"pbrMetallicRoughness":{
				"metallicFactor":0,
				"roughnessFactor":0.5
			}
		},
		{
			"doubleSided":true,
			"name":"Material",
			"pbrMetallicRoughness":{
				"baseColorFactor":[
					0.800000011920929,
					0.800000011920929,
					0.800000011920929,
					1
				],
				"metallicFactor":0,
				"roughnessFactor":0.5
			}
		}
	],
	"meshes":[
		{
			"name":"bodytop",
			"primitives":[
				{
					"attributes":{
						"POSITION":0,
						"NORMAL":1,
						"TEXCOORD_0":2
					},
					"indices":3,
					"material":0
				}
			]
		},
		{
			"name":"bodybottom",
			"primitives":[
				{
					"attributes":{
						"POSITION":4,
						"NORMAL":5,
						"TEXCOORD_0":6
					},
					"indices":7,
					"material":0
				}
			]
		},
		{
			"name":"bottom",
			"primitives":[
				{
					"attributes":{
						"POSITION":8,
						"NORMAL":9,
						"TEXCOORD_0":10
					},
					"indices":11,
					"material":1
				}
			]
		},
		{
			"name":"top",
			"primitives":[
				{
					"attributes":{
						"POSITION":12,
						"NORMAL":13,
						"TEXCOORD_0":14
					},
					"indices":15,
					"material":1
				}
			]
		},
		{
			"name":"lid",
			"primitives":[
				{
					"attributes":{
						"POSITION":16,
						"NORMAL":17,
						"TEXCOORD_0":18
					},
					"indices":19,
					"material":2
				}
			]
		},
		{
			"name":"label",
			"primitives":[
				{
					"attributes":{
						"POSITION":20,
						"NORMAL":21,
						"TEXCOORD_0":22
					},
					"indices":23,
					"material":3
				}
			]
		},
		{
			"name":"Cube",
			"primitives":[
				{
					"attributes":{
						"POSITION":24,
						"NORMAL":25,
						"TEXCOORD_0":26
					},
					"indices":27,
					"material":4
				}
			]
		}
	],
	"accessors":[
		{
			"bufferView":0,
			"componentType":5126,
			"count":2138,
			"max":[
				0.19880066812038422,
				0.33093762397766113,
				0.19882754981517792
			],
			"min":[
				-0.19885116815567017,
				0.2565106153488159,
				-0.19882428646087646
			],
			"type":"VEC3"
		},
		{
			"bufferView":1,
			"componentType":5126,
			"count":2138,
			"type":"VEC3"
		},
		{
			"bufferView":2,
			"componentType":5126,
			"count":2138,
			"type":"VEC2"
		},
		{
			"bufferView":3,
			"componentType":5123,
			"count":10032,
			"type":"SCALAR"
		},
		{
			"bufferView":4,
			"componentType":5126,
			"count":310,
			"max":[
				0.19868691265583038,
				-0.28044071793556213,
				0.19871379435062408
			],
			"min":[
				-0.19873742759227753,
				-0.2867725193500519,
				-0.19871054589748383
			],
			"type":"VEC3"
		},
		{
			"bufferView":5,
			"componentType":5126,
			"count":310,
			"type":"VEC3"
		},
		{
			"bufferView":6,
			"componentType":5126,
			"count":310,
			"type":"VEC2"
		},
		{
			"bufferView":7,
			"componentType":5123,
			"count":912,
			"type":"SCALAR"
		},
		{
			"bufferView":8,
			"componentType":5126,
			"count":7042,
			"max":[
				0.19826985895633698,
				-0.2867725193500519,
				0.19829674065113068
			],
			"min":[
				-0.19828245043754578,
				-0.3492709696292877,
				-0.19825556874275208
			],
			"type":"VEC3"
		},
		{
			"bufferView":9,
			"componentType":5126,
			"count":7042,
			"type":"VEC3"
		},
		{
			"bufferView":10,
			"componentType":5126,
			"count":7042,
			"type":"VEC2"
		},
		{
			"bufferView":11,
			"componentType":5123,
			"count":38304,
			"type":"SCALAR"
		},
		{
			"bufferView":12,
			"componentType":5126,
			"count":12589,
			"max":[
				0.1782272905111313,
				0.35007044672966003,
				0.1782541424036026
			],
			"min":[
				-0.17825199663639069,
				0.3277877867221832,
				-0.17822514474391937
			],
			"type":"VEC3"
		},
		{
			"bufferView":13,
			"componentType":5126,
			"count":12589,
			"type":"VEC3"
		},
		{
			"bufferView":14,
			"componentType":5126,
			"count":12589,
			"type":"VEC2"
		},
		{
			"bufferView":15,
			"componentType":5123,
			"count":75072,
			"type":"SCALAR"
		},
		{
			"bufferView":16,
			"componentType":5126,
			"count":625,
			"max":[
				0.10328245162963867,
				0.3453875780105591,
				0.04694851487874985
			],
			"min":[
				-0.05091589689254761,
				0.33007410168647766,
				-0.07133328169584274
			],
			"type":"VEC3"
		},
		{
			"bufferView":17,
			"componentType":5126,
			"count":625,
			"type":"VEC3"
		},
		{
			"bufferView":18,
			"componentType":5126,
			"count":625,
			"type":"VEC2"
		},
		{
			"bufferView":19,
			"componentType":5123,
			"count":3504,
			"type":"SCALAR"
		},
		{
			"bufferView":20,
			"componentType":5126,
			"count":2475,
			"max":[
				0.1988764852285385,
				0.2565106153488159,
				0.19890336692333221
			],
			"min":[
				-0.19892700016498566,
				-0.28044071793556213,
				-0.19890011847019196
			],
			"type":"VEC3"
		},
		{
			"bufferView":21,
			"componentType":5126,
			"count":2475,
			"type":"VEC3"
		},
		{
			"bufferView":22,
			"componentType":5126,
			"count":2475,
			"type":"VEC2"
		},
		{
			"bufferView":23,
			"componentType":5123,
			"count":13680,
			"type":"SCALAR"
		},
		{
			"bufferView":24,
			"componentType":5126,
			"count":24,
			"max":[
				1,
				1,
				1
			],
			"min":[
				-1,
				-1,
				-1
			],
			"type":"VEC3"
		},
		{
			"bufferView":25,
			"componentType":5126,
			"count":24,
			"type":"VEC3"
		},
		{
			"bufferView":26,
			"componentType":5126,
			"count":24,
			"type":"VEC2"
		},
		{
			"bufferView":27,
			"componentType":5123,
			"count":36,
			"type":"SCALAR"
		}
	],
	"bufferViews":[
		{
			"buffer":0,
			"byteLength":25656,
			"byteOffset":0,
			"target":34962
		},
		{
			"buffer":0,
			"byteLength":25656,
			"byteOffset":25656,
			"target":34962
		},
		{
			"buffer":0,
			"byteLength":17104,
			"byteOffset":51312,
			"target":34962
		},
		{
			"buffer":0,
			"byteLength":20064,
			"byteOffset":68416,
			"target":34963
		},
		{
			"buffer":0,
			"byteLength":3720,
			"byteOffset":88480,
			"target":34962
		},
		{
			"buffer":0,
			"byteLength":3720,
			"byteOffset":92200,
			"target":34962
		},
		{
			"buffer":0,
			"byteLength":2480,
			"byteOffset":95920,
			"target":34962
		},
		{
			"buffer":0,
			"byteLength":1824,
			"byteOffset":98400,
			"target":34963
		},
		{
			"buffer":0,
			"byteLength":84504,
			"byteOffset":100224,
			"target":34962
		},
		{
			"buffer":0,
			"byteLength":84504,
			"byteOffset":184728,
			"target":34962
		},
		{
			"buffer":0,
			"byteLength":56336,
			"byteOffset":269232,
			"target":34962
		},
		{
			"buffer":0,
			"byteLength":76608,
			"byteOffset":325568,
			"target":34963
		},
		{
			"buffer":0,
			"byteLength":151068,
			"byteOffset":402176,
			"target":34962
		},
		{
			"buffer":0,
			"byteLength":151068,
			"byteOffset":553244,
			"target":34962
		},
		{
			"buffer":0,
			"byteLength":100712,
			"byteOffset":704312,
			"target":34962
		},
		{
			"buffer":0,
			"byteLength":150144,
			"byteOffset":805024,
			"target":34963
		},
		{
			"buffer":0,
			"byteLength":7500,
			"byteOffset":955168,
			"target":34962
		},
		{
			"buffer":0,
			"byteLength":7500,
			"byteOffset":962668,
			"target":34962
		},
		{
			"buffer":0,
			"byteLength":5000,
			"byteOffset":970168,
			"target":34962
		},
		{
			"buffer":0,
			"byteLength":7008,
			"byteOffset":975168,
			"target":34963
		},
		{
			"buffer":0,
			"byteLength":29700,
			"byteOffset":982176,
			"target":34962
		},
		{
			"buffer":0,
			"byteLength":29700,
			"byteOffset":1011876,
			"target":34962
		},
		{
			"buffer":0,
			"byteLength":19800,
			"byteOffset":1041576,
			"target":34962
		},
		{
			"buffer":0,
			"byteLength":27360,
			"byteOffset":1061376,
			"target":34963
		},
		{
			"buffer":0,
			"byteLength":288,
			"byteOffset":1088736,
			"target":34962
		},
		{
			"buffer":0,
			"byteLength":288,
			"byteOffset":1089024,
			"target":34962
		},
		{
			"buffer":0,
			"byteLength":192,
			"byteOffset":1089312,
			"target":34962
		},
		{
			"buffer":0,
			"byteLength":72,
			"byteOffset":1089504,
			"target":34963
		}
	],
	"buffers":[
		{
			"byteLength":1089576,
			"uri":"can.bin"
		}
	]
}
