{
	"asset":{
		"generator":"Khronos glTF Blender I/O v4.2.70",
		"version":"2.0"
	},
	"scene":0,
	"scenes":[
		{
			"name":"Scene",
			"nodes":[
				0,
				1,
				2,
				3,
				4
			]
		}
	],
	"nodes":[
		{
			"mesh":0,
			"name":"Cube"
		},
		{
			"mesh":1,
			"name":"body"
		},
		{
			"mesh":2,
			"name":"circles"
		},
		{
			"mesh":3,
			"name":"label"
		},
		{
			"mesh":4,
			"name":"lid"
		}
	],
	"materials":[
		{
			"doubleSided":true,
			"name":"Material",
			"pbrMetallicRoughness":{
				"baseColorFactor":[
					0.800000011920929,
					0.800000011920929,
					0.800000011920929,
					1
				],
				"metallicFactor":0,
				"roughnessFactor":0.5
			}
		}
	],
	"meshes":[
		{
			"name":"Cube",
			"primitives":[
				{
					"attributes":{
						"POSITION":0,
						"NORMAL":1,
						"TEXCOORD_0":2
					},
					"indices":3,
					"material":0
				}
			]
		},
		{
			"name":"body_1",
			"primitives":[
				{
					"attributes":{
						"POSITION":4,
						"NORMAL":5,
						"TEXCOORD_0":6
					},
					"indices":7
				}
			]
		},
		{
			"name":"circles_1",
			"primitives":[
				{
					"attributes":{
						"POSITION":8,
						"NORMAL":9,
						"TEXCOORD_0":10
					},
					"indices":11
				}
			]
		},
		{
			"name":"label_1",
			"primitives":[
				{
					"attributes":{
						"POSITION":12,
						"NORMAL":13,
						"TEXCOORD_0":14
					},
					"indices":15
				}
			]
		},
		{
			"name":"lid_1",
			"primitives":[
				{
					"attributes":{
						"POSITION":16,
						"NORMAL":17,
						"TEXCOORD_0":18
					},
					"indices":19
				}
			]
		}
	],
	"accessors":[
		{
			"bufferView":0,
			"componentType":5126,
			"count":24,
			"max":[
				1,
				1,
				1
			],
			"min":[
				-1,
				-1,
				-1
			],
			"type":"VEC3"
		},
		{
			"bufferView":1,
			"componentType":5126,
			"count":24,
			"type":"VEC3"
		},
		{
			"bufferView":2,
			"componentType":5126,
			"count":24,
			"type":"VEC2"
		},
		{
			"bufferView":3,
			"componentType":5123,
			"count":36,
			"type":"SCALAR"
		},
		{
			"bufferView":4,
			"componentType":5126,
			"count":2718,
			"max":[
				0.1988764852285385,
				0.33093762397766113,
				0.19890336692333221
			],
			"min":[
				-0.1988890916109085,
				-0.29022276401519775,
				-0.1988622099161148
			],
			"type":"VEC3"
		},
		{
			"bufferView":5,
			"componentType":5126,
			"count":2718,
			"type":"VEC3"
		},
		{
			"bufferView":6,
			"componentType":5126,
			"count":2718,
			"type":"VEC2"
		},
		{
			"bufferView":7,
			"componentType":5123,
			"count":12624,
			"type":"SCALAR"
		},
		{
			"bufferView":8,
			"componentType":5126,
			"count":16052,
			"max":[
				0.1973937600851059,
				0.35007044672966003,
				0.1974206119775772
			],
			"min":[
				-0.1974184662103653,
				-0.34799036383628845,
				-0.19739161431789398
			],
			"type":"VEC3"
		},
		{
			"bufferView":9,
			"componentType":5126,
			"count":16052,
			"type":"VEC3"
		},
		{
			"bufferView":10,
			"componentType":5126,
			"count":16052,
			"type":"VEC2"
		},
		{
			"bufferView":11,
			"componentType":5123,
			"count":93312,
			"type":"SCALAR"
		},
		{
			"bufferView":12,
			"componentType":5126,
			"count":2320,
			"max":[
				0.1988764852285385,
				0.2565106153488159,
				0.19890336692333221
			],
			"min":[
				-0.19892700016498566,
				-0.2687250077724457,
				-0.19890011847019196
			],
			"type":"VEC3"
		},
		{
			"bufferView":13,
			"componentType":5126,
			"count":2320,
			"type":"VEC3"
		},
		{
			"bufferView":14,
			"componentType":5126,
			"count":2320,
			"type":"VEC2"
		},
		{
			"bufferView":15,
			"componentType":5123,
			"count":12768,
			"type":"SCALAR"
		},
		{
			"bufferView":16,
			"componentType":5126,
			"count":650,
			"max":[
				0.10328245162963867,
				0.3453875780105591,
				0.04694851487874985
			],
			"min":[
				-0.05091589689254761,
				0.33007410168647766,
				-0.07133328169584274
			],
			"type":"VEC3"
		},
		{
			"bufferView":17,
			"componentType":5126,
			"count":650,
			"type":"VEC3"
		},
		{
			"bufferView":18,
			"componentType":5126,
			"count":650,
			"type":"VEC2"
		},
		{
			"bufferView":19,
			"componentType":5123,
			"count":3504,
			"type":"SCALAR"
		}
	],
	"bufferViews":[
		{
			"buffer":0,
			"byteLength":288,
			"byteOffset":0,
			"target":34962
		},
		{
			"buffer":0,
			"byteLength":288,
			"byteOffset":288,
			"target":34962
		},
		{
			"buffer":0,
			"byteLength":192,
			"byteOffset":576,
			"target":34962
		},
		{
			"buffer":0,
			"byteLength":72,
			"byteOffset":768,
			"target":34963
		},
		{
			"buffer":0,
			"byteLength":32616,
			"byteOffset":840,
			"target":34962
		},
		{
			"buffer":0,
			"byteLength":32616,
			"byteOffset":33456,
			"target":34962
		},
		{
			"buffer":0,
			"byteLength":21744,
			"byteOffset":66072,
			"target":34962
		},
		{
			"buffer":0,
			"byteLength":25248,
			"byteOffset":87816,
			"target":34963
		},
		{
			"buffer":0,
			"byteLength":192624,
			"byteOffset":113064,
			"target":34962
		},
		{
			"buffer":0,
			"byteLength":192624,
			"byteOffset":305688,
			"target":34962
		},
		{
			"buffer":0,
			"byteLength":128416,
			"byteOffset":498312,
			"target":34962
		},
		{
			"buffer":0,
			"byteLength":186624,
			"byteOffset":626728,
			"target":34963
		},
		{
			"buffer":0,
			"byteLength":27840,
			"byteOffset":813352,
			"target":34962
		},
		{
			"buffer":0,
			"byteLength":27840,
			"byteOffset":841192,
			"target":34962
		},
		{
			"buffer":0,
			"byteLength":18560,
			"byteOffset":869032,
			"target":34962
		},
		{
			"buffer":0,
			"byteLength":25536,
			"byteOffset":887592,
			"target":34963
		},
		{
			"buffer":0,
			"byteLength":7800,
			"byteOffset":913128,
			"target":34962
		},
		{
			"buffer":0,
			"byteLength":7800,
			"byteOffset":920928,
			"target":34962
		},
		{
			"buffer":0,
			"byteLength":5200,
			"byteOffset":928728,
			"target":34962
		},
		{
			"buffer":0,
			"byteLength":7008,
			"byteOffset":933928,
			"target":34963
		}
	],
	"buffers":[
		{
			"byteLength":940936,
			"uri":"completeCan.bin"
		}
	]
}
