<svg version="1.1" id="Layer_1" xmlns="http://www.w3.org/2000/svg" xmlns:xlink="http://www.w3.org/1999/xlink" x="0px" y="0px"
	 width="100%" viewBox="0 0 1030 1030" enable-background="new 0 0 1030 1030" xml:space="preserve">
<path fill="#000000" opacity="1.000000" stroke="none" 
	d="
M499.000000,1031.000000 
	C332.686737,1031.000000 166.873505,1031.000000 1.030128,1031.000000 
	C1.030128,687.728333 1.030128,344.456665 1.030128,1.092503 
	C344.230042,1.092503 687.460083,1.092503 1030.845093,1.092503 
	C1030.845093,344.333282 1030.845093,687.666626 1030.845093,1031.000000 
	C853.789734,1031.000000 676.644836,1031.000000 499.000000,1031.000000 
M369.470398,514.933228 
	C358.863861,553.992004 352.926544,593.711182 352.732391,634.225647 
	C352.595825,662.717224 352.494598,691.209412 352.527069,719.701172 
	C352.544556,735.028809 350.307220,749.947449 344.356689,764.083313 
	C340.967499,772.134583 336.652466,779.796021 332.740845,787.660278 
	C366.633331,787.660278 400.747223,787.660278 435.028381,787.660278 
	C424.730072,766.849487 422.400848,748.024902 421.985931,727.397644 
	C421.289368,692.765320 421.537903,658.113770 421.415833,623.470276 
	C421.411438,622.223145 421.693268,620.975037 421.829926,619.826538 
	C475.445740,619.826538 528.659119,619.826538 582.165771,619.826538 
	C582.165771,621.124146 582.167053,622.100403 582.165649,623.076599 
	C582.110168,661.900330 582.364197,700.728821 581.777039,739.544495 
	C581.633301,749.043945 579.380127,758.675171 576.892090,767.921570 
	C575.038452,774.810364 571.242737,781.176575 568.309204,787.781616 
	C601.146912,787.781616 634.039551,787.781616 667.343018,787.781616 
	C666.943787,786.718994 666.736206,785.948853 666.381409,785.253967 
	C657.485596,767.833984 653.933228,749.300964 653.946533,729.804810 
	C654.046448,583.172546 653.941101,436.539978 654.134216,289.907837 
	C654.147278,279.986542 655.224731,269.883392 657.345215,260.201691 
	C659.306824,251.245758 663.334229,242.742264 666.652344,233.479858 
	C662.022644,233.069321 656.937012,232.326523 651.837402,232.213242 
	C617.182678,231.443512 584.913452,240.576202 554.876282,257.237976 
	C510.158112,282.043457 473.903473,316.503845 443.727264,357.522400 
	C408.871460,404.901886 385.427887,457.707428 369.470398,514.933228 
z"/>
<path fill="#FEFEFE" opacity="1.000000" stroke="none" 
	d="
M369.608948,514.547485 
	C385.427887,457.707428 408.871460,404.901886 443.727264,357.522400 
	C473.903473,316.503845 510.158112,282.043457 554.876282,257.237976 
	C584.913452,240.576202 617.182678,231.443512 651.837402,232.213242 
	C656.937012,232.326523 662.022644,233.069321 666.652344,233.479858 
	C663.334229,242.742264 659.306824,251.245758 657.345215,260.201691 
	C655.224731,269.883392 654.147278,279.986542 654.134216,289.907837 
	C653.941101,436.539978 654.046448,583.172546 653.946533,729.804810 
	C653.933228,749.300964 657.485596,767.833984 666.381409,785.253967 
	C666.736206,785.948853 666.943787,786.718994 667.343018,787.781616 
	C634.039551,787.781616 601.146912,787.781616 568.309204,787.781616 
	C571.242737,781.176575 575.038452,774.810364 576.892090,767.921570 
	C579.380127,758.675171 581.633301,749.043945 581.777039,739.544495 
	C582.364197,700.728821 582.110168,661.900330 582.165649,623.076599 
	C582.167053,622.100403 582.165771,621.124146 582.165771,619.826538 
	C528.659119,619.826538 475.445740,619.826538 421.829926,619.826538 
	C421.693268,620.975037 421.411438,622.223145 421.415833,623.470276 
	C421.537903,658.113770 421.289368,692.765320 421.985931,727.397644 
	C422.400848,748.024902 424.730072,766.849487 435.028381,787.660278 
	C400.747223,787.660278 366.633331,787.660278 332.740845,787.660278 
	C336.652466,779.796021 340.967499,772.134583 344.356689,764.083313 
	C350.307220,749.947449 352.544556,735.028809 352.527069,719.701172 
	C352.494598,691.209412 352.595825,662.717224 352.732391,634.225647 
	C352.926544,593.711182 358.863861,553.992004 369.608948,514.547485 
M433.120483,547.016602 
	C432.972504,548.256165 432.824554,549.495789 432.690002,550.623108 
	C482.698395,550.623108 532.391663,550.623108 581.681885,550.623108 
	C581.681885,471.760895 581.681885,393.275879 581.681885,314.279449 
	C557.600586,328.168854 537.622375,345.856262 520.656677,366.849182 
	C477.801514,419.877045 449.401642,480.025299 433.120483,547.016602 
z"/>
<path fill="#000000" opacity="1.000000" stroke="none" 
	d="
M433.210815,546.572571 
	C449.401642,480.025299 477.801514,419.877045 520.656677,366.849182 
	C537.622375,345.856262 557.600586,328.168854 581.681885,314.279449 
	C581.681885,393.275879 581.681885,471.760895 581.681885,550.623108 
	C532.391663,550.623108 482.698395,550.623108 432.690002,550.623108 
	C432.824554,549.495789 432.972504,548.256165 433.210815,546.572571 
z"/>
</svg>